<svg version="1.1" id="Layer_1" xmlns="http://www.w3.org/2000/svg" xmlns:xlink="http://www.w3.org/1999/xlink" x="0px" y="0px"
	 width="100%" viewBox="0 0 742 946" enable-background="new 0 0 742 946" xml:space="preserve">
<path fill="#000100" opacity="1.000000" stroke="none" 
	d="
M419.000000,1.000003 
	C526.986145,1.000000 634.972290,1.000000 742.979248,1.000000 
	C742.979248,316.279022 742.979248,631.558044 742.979248,946.918518 
	C495.752747,946.918518 248.505478,946.918518 1.129099,946.918518 
	C1.129099,631.666687 1.129099,316.333344 1.124719,1.000009 
	C104.440422,1.000000 207.760513,1.000000 311.421631,1.347022 
	C309.952362,2.387074 308.188110,3.254719 306.324646,3.746370 
	C285.593933,9.215872 264.443024,13.435891 244.195328,20.317160 
	C208.625488,32.405724 176.149567,50.773006 146.584824,74.014374 
	C78.255463,127.729286 34.283272,197.029541 15.567942,281.886444 
	C4.441785,332.333435 4.972321,383.073517 15.532565,433.660004 
	C16.481052,438.203491 17.994785,442.628998 19.246012,447.109283 
	C13.957340,354.075104 38.562389,270.596191 97.622650,198.547455 
	C156.655762,126.531837 233.149078,84.009605 325.728760,73.615059 
	C433.996216,61.459137 529.003357,93.174866 607.454834,168.958221 
	C685.783081,244.622574 718.852051,338.652863 712.932922,446.986847 
	C713.505371,446.451599 713.776978,446.034698 713.908142,445.577484 
	C720.138062,423.861603 723.305359,401.571777 724.459351,379.133514 
	C726.210632,345.081940 723.878967,311.266296 716.098694,277.885132 
	C709.756165,250.672379 700.696838,224.501480 688.350098,199.463089 
	C663.144958,148.349106 627.801636,105.536125 582.366577,71.187210 
	C537.792480,37.489254 488.014526,15.332526 433.028625,4.973809 
	C428.271698,4.077655 423.672485,2.344409 419.000000,1.000003 
M669.500000,746.985779 
	C686.832642,746.985779 704.165527,747.036560 721.497559,746.933044 
	C724.220154,746.916748 726.938538,746.200806 729.658875,745.808411 
	C728.710388,743.276672 728.105835,740.544556 726.763916,738.242126 
	C671.495117,643.415222 616.153687,548.630615 560.835144,453.832733 
	C496.951294,344.356689 433.081451,234.872528 369.200653,125.394707 
	C365.687714,119.374313 365.105865,119.345993 361.636749,125.351463 
	C304.482788,224.291168 247.348160,323.242035 190.205109,422.188049 
	C161.300568,472.237671 132.382004,522.279175 103.500092,572.341858 
	C102.316719,574.393005 101.443367,576.623047 100.053413,579.554688 
	C102.585083,579.554688 104.039879,579.729126 105.440758,579.527954 
	C121.245705,577.259033 136.980423,574.301147 152.853256,572.743286 
	C195.234375,568.583862 237.362335,570.770203 279.095093,579.494751 
	C285.725159,580.880798 286.872833,580.378113 290.336731,574.374756 
	C314.143341,533.115173 337.957092,491.859619 361.786804,450.613373 
	C362.735992,448.970398 363.870087,447.434296 365.317596,445.243652 
	C366.765991,447.301788 367.795258,448.568726 368.616089,449.958710 
	C425.787262,546.769470 482.978241,643.568542 539.989563,740.473389 
	C542.830261,745.301758 546.015381,747.107971 551.510803,747.081970 
	C590.506470,746.897644 629.503418,746.984924 669.500000,746.985779 
M138.902496,596.537354 
	C104.018829,600.977051 70.382011,609.933105 38.126335,623.992798 
	C39.225426,624.538025 40.174885,624.440002 41.124702,624.345703 
	C59.172882,622.552612 77.184998,620.040649 95.277618,619.132812 
	C123.642303,617.709351 151.804855,620.425537 179.793015,625.355591 
	C209.608093,630.607544 238.431122,639.086121 266.255676,650.914062 
	C316.546692,672.292419 360.844330,702.523010 398.963043,741.696777 
	C402.616669,745.451599 406.392365,747.124146 411.668335,747.090027 
	C442.159424,746.893005 472.652435,747.015198 503.144562,746.934082 
	C505.003601,746.929138 506.860443,746.106812 508.718323,745.664734 
	C507.911011,743.966187 507.414520,742.009583 506.250244,740.607483 
	C485.190216,715.244751 461.587402,692.503906 434.980988,673.028931 
	C363.284515,620.549438 283.088226,593.311462 194.076691,593.286133 
	C175.977264,593.281006 157.877274,595.295166 138.902496,596.537354 
M227.077423,731.340515 
	C234.373230,736.860291 241.528152,742.583557 249.043030,747.786865 
	C251.590759,749.550903 255.032852,750.858032 258.091553,750.910889 
	C275.240021,751.207581 292.396271,751.075134 309.549713,751.030334 
	C311.242371,751.025940 312.933990,750.623169 314.626099,750.405334 
	C314.754517,749.864441 314.882935,749.323547 315.011353,748.782654 
	C278.871216,712.252686 234.824463,690.050232 184.737549,679.735352 
	C134.527908,669.395203 84.805908,671.811401 36.052189,688.486633 
	C104.329155,681.380188 168.222534,693.422607 227.077423,731.340515 
M90.619308,926.603760 
	C92.557182,930.246643 95.799164,930.814636 98.159004,927.783142 
	C99.052971,926.634766 99.564476,925.156128 100.108063,923.772217 
	C118.665367,876.527832 137.199707,829.274414 155.771225,782.035645 
	C156.452774,780.302063 157.473969,778.702087 158.694244,776.351440 
	C162.110611,782.193665 164.085693,786.928711 161.651062,793.020020 
	C147.876862,827.482605 134.362839,862.049072 120.760078,896.580078 
	C117.161575,905.715027 113.463715,914.813293 110.061874,924.020874 
	C109.498314,925.546204 110.227341,927.549133 110.359024,929.331360 
	C112.676491,928.580017 115.183517,928.150085 117.231827,926.942322 
	C118.265396,926.332886 118.497200,924.325500 119.041954,922.930847 
	C134.360764,883.711792 149.666687,844.487610 165.010315,805.278259 
	C165.632202,803.689209 166.600235,802.235535 167.702393,800.163452 
	C171.895859,805.915283 173.142120,810.986877 170.695038,817.118225 
	C164.342056,833.036194 158.424713,849.127258 152.193344,865.094543 
	C144.448715,884.939514 136.532379,904.717529 128.808594,924.570496 
	C128.298279,925.882141 128.393341,928.719238 128.892090,928.894287 
	C130.454803,929.442749 132.514679,929.489746 134.054031,928.889832 
	C135.210968,928.438843 136.119659,926.804810 136.691940,925.501282 
	C138.497650,921.388123 140.292862,917.249329 141.711319,912.993469 
	C143.031708,909.031921 145.497482,907.655090 149.567719,907.683228 
	C168.058823,907.811096 186.552338,907.841309 205.042587,907.660767 
	C209.436462,907.617920 211.751755,909.346924 213.120987,913.363342 
	C214.676376,917.925842 216.206345,922.609619 218.649490,926.702087 
	C219.641571,928.363892 223.012726,928.605530 225.301346,929.493347 
	C225.456223,927.629700 226.221542,925.551880 225.656296,923.940857 
	C223.619995,918.137756 221.081268,912.513245 218.828247,906.783508 
	C200.985107,861.406555 183.145966,816.027954 165.372391,770.623779 
	C164.023560,767.178040 162.780975,764.300598 158.227829,764.335205 
	C153.727646,764.369385 152.867462,767.593323 151.661926,770.664246 
	C131.349640,822.406433 111.054581,874.155334 90.619308,926.603760 
M446.403351,832.968567 
	C447.318604,825.435059 449.884155,817.668457 448.858917,810.408936 
	C444.763885,781.412109 424.598297,764.506470 395.330292,764.367493 
	C371.506744,764.254333 347.682190,764.326721 323.858093,764.348877 
	C316.333710,764.355896 316.057159,764.658936 316.055847,772.344543 
	C316.047424,822.158569 316.050537,871.972656 316.058167,921.786682 
	C316.058411,923.284302 315.694153,925.019104 316.318176,926.216980 
	C317.030457,927.584229 318.650116,929.317566 319.894653,929.332947 
	C321.138794,929.348206 323.011261,927.663025 323.514404,926.315002 
	C324.174805,924.545471 323.807587,922.376221 323.808014,920.378906 
	C323.818085,873.563721 323.809021,826.748474 323.829987,779.933289 
	C323.833008,773.182373 324.319580,772.530579 330.173553,772.522156 
	C353.663910,772.488403 377.155334,772.463867 400.643982,772.685730 
	C404.560547,772.722717 408.610626,773.555847 412.351379,774.778625 
	C431.981689,781.195068 443.885742,801.507568 440.628265,822.600647 
	C437.417511,843.391296 419.935303,859.008911 399.467255,859.263367 
	C389.972260,859.381409 380.474945,859.309082 370.978760,859.344116 
	C369.482056,859.349670 367.705261,858.989624 366.562897,859.659607 
	C365.248566,860.430603 363.848602,862.093567 363.708954,863.491394 
	C363.602875,864.553101 365.462585,866.848755 366.357544,866.803833 
	C371.914703,866.524536 373.619537,870.460205 375.727386,874.330872 
	C384.884766,891.146423 394.129181,907.914856 403.387482,924.675232 
	C406.420746,930.166321 408.553528,930.881531 414.253174,928.025574 
	C403.419220,908.309326 392.591644,888.604736 381.730316,868.838623 
	C388.764221,865.767212 391.252167,866.607361 394.643768,872.704041 
	C404.519135,890.455688 414.374878,908.218384 424.184814,926.006226 
	C426.006531,929.309387 428.734467,930.689636 431.947998,928.956055 
	C432.627197,928.589661 432.069824,924.520996 431.083923,922.698120 
	C422.133514,906.149902 412.950195,889.727844 403.871704,873.248596 
	C402.963013,871.599121 402.296783,869.816040 401.490295,868.033691 
	C410.314087,865.203796 410.377991,865.258728 414.286255,872.297058 
	C424.147430,890.055908 434.068604,907.781555 443.899719,925.557007 
	C445.762482,928.925049 448.363251,930.915039 451.879578,928.901855 
	C452.606964,928.485413 451.877869,924.160278 450.808746,922.183655 
	C441.066559,904.171814 431.155853,886.250122 421.150024,868.382935 
	C419.286072,865.054443 418.992340,862.985535 422.886871,860.815613 
	C433.905518,854.676208 441.524994,845.426392 446.403351,832.968567 
M517.261108,803.684509 
	C504.737457,825.522156 501.714661,848.585083 509.607269,872.522034 
	C523.548584,914.803650 563.701843,938.176331 607.450806,929.805481 
	C621.984985,927.024536 634.786377,920.387024 645.996399,910.784668 
	C647.060303,909.873413 647.997009,907.211243 647.449341,906.384521 
	C646.553589,905.032471 644.435730,903.994873 642.741638,903.842285 
	C641.627625,903.741943 640.330322,905.401245 639.152771,906.320801 
	C619.447998,921.710144 597.251343,927.439453 572.917358,921.619263 
	C529.244080,911.173523 504.034576,868.134033 516.848267,824.898254 
	C525.727356,794.938660 546.944031,776.712952 577.505188,771.308533 
	C600.845032,767.181152 622.537659,773.004456 640.809875,788.960388 
	C643.164551,791.016602 645.079407,791.890442 647.537720,789.169678 
	C650.289062,786.124451 647.629395,784.746033 645.869873,783.149170 
	C634.331665,772.678223 620.701782,766.144897 605.507507,763.491089 
	C570.157898,757.317139 536.845154,772.528259 517.261108,803.684509 
M414.504242,785.997131 
	C408.098389,782.151550 400.984589,781.563232 393.765686,781.552246 
	C376.266144,781.525574 358.766479,781.520935 341.266937,781.546814 
	C333.696045,781.558044 333.324738,781.932190 333.322571,789.437317 
	C333.309845,833.602966 333.315765,877.768616 333.322510,921.934265 
	C333.322693,923.266357 332.950195,924.869019 333.549133,925.866699 
	C334.432709,927.338440 336.014923,929.312561 337.334381,929.339050 
	C338.628784,929.365051 340.546234,927.454346 341.134857,925.973999 
	C341.827789,924.231384 341.428589,922.037292 341.429108,920.039001 
	C341.439575,879.206604 341.426422,838.374207 341.453369,797.541809 
	C341.458252,790.155334 342.110657,789.501343 349.415070,789.482605 
	C364.747894,789.443237 380.081757,789.396973 395.413269,789.548462 
	C399.036835,789.584290 402.849579,789.806885 406.236725,790.948242 
	C418.185974,794.974854 425.815277,807.316956 424.042328,818.998230 
	C422.007355,832.405884 411.490723,841.841858 397.999512,842.092896 
	C388.169556,842.275879 378.334167,842.169678 368.501190,842.183716 
	C365.717621,842.187683 362.965118,842.932007 363.712372,846.205994 
	C364.050476,847.687317 366.807587,849.586487 368.509338,849.629395 
	C379.667572,849.911072 390.837616,849.773499 402.002899,849.671509 
	C403.635803,849.656616 405.320465,849.276611 406.885162,848.769409 
	C421.046814,844.178406 429.869873,834.657532 431.625885,819.792297 
	C433.327911,805.384338 427.275085,794.223389 414.504242,785.997131 
M548.634521,899.825317 
	C558.853577,907.867920 570.503540,912.559448 583.366333,913.893250 
	C602.404358,915.867310 619.224976,910.153625 633.902588,898.092346 
	C634.921143,897.255371 635.439941,894.501526 634.849548,893.296204 
	C633.726990,891.004517 631.482605,890.133057 629.046997,892.142029 
	C627.762878,893.201233 626.441895,894.220154 625.093140,895.195862 
	C597.259216,915.330444 559.309204,908.005493 540.222351,878.822449 
	C521.906616,850.818115 531.248901,812.272217 560.446167,795.380554 
	C582.128540,782.836548 606.822021,784.755127 627.835022,800.648071 
	C630.265625,802.486389 632.543518,804.865051 635.330811,801.154724 
	C638.175659,797.367615 634.459473,796.035034 632.550964,794.532776 
	C615.872681,781.403931 596.872192,776.313232 576.211792,781.046997 
	C549.169800,787.242798 531.169373,804.291748 524.842468,831.295105 
	C518.535950,858.211670 527.012939,881.231873 548.634521,899.825317 
M350.381744,807.677002 
	C350.380127,845.145813 350.376648,882.614685 350.382507,920.083496 
	C350.382782,921.914124 349.950470,923.979004 350.648895,925.511230 
	C351.388855,927.134583 353.239838,928.251465 354.605621,929.589600 
	C355.904907,928.173950 357.608063,926.945618 358.378479,925.284607 
	C359.019287,923.903198 358.589813,922.013306 358.590302,920.348694 
	C358.596405,898.533508 358.592194,876.718323 358.595795,854.903137 
	C358.598114,840.914795 358.628235,826.926453 358.602020,812.938171 
	C358.595764,809.605347 359.188110,806.861084 363.349304,806.868774 
	C374.837280,806.889893 386.328369,806.794861 397.810364,807.071655 
	C399.936218,807.122986 402.911438,808.127502 403.924591,809.702209 
	C405.460144,812.088928 406.606384,815.538086 406.125946,818.214172 
	C405.452698,821.963989 402.367493,824.384827 398.100494,824.408081 
	C388.109741,824.462402 378.111847,824.347534 368.135437,824.755310 
	C366.529907,824.820923 365.019928,827.225403 363.465759,828.548706 
	C364.957825,829.938538 366.422546,832.494934 367.946350,832.530579 
	C378.589752,832.779968 389.261688,832.830017 399.891357,832.290833 
	C407.145477,831.922913 411.593994,827.182373 413.905884,820.513733 
	C416.117035,814.135559 414.026825,808.751953 409.616852,804.060242 
	C405.549835,799.733582 400.271545,798.513733 394.611816,798.492310 
	C382.621979,798.446960 370.631805,798.442200 358.641907,798.473511 
	C350.979828,798.493469 350.611267,798.905273 350.381744,807.677002 
M623.014832,881.052063 
	C620.606873,877.589294 618.199158,878.841309 615.412415,880.749390 
	C604.448669,888.256592 592.682068,891.180054 579.435547,887.566101 
	C562.083435,882.832153 548.926880,867.144653 547.929504,849.221863 
	C546.940369,831.447144 557.954834,814.196228 574.466064,807.835144 
	C589.729431,801.954834 603.874512,804.310608 616.874817,813.996155 
	C619.407104,815.882629 621.787659,815.937622 623.044800,813.166138 
	C623.624146,811.888916 622.800903,809.002686 621.633240,808.058533 
	C611.544556,799.900635 599.872986,795.624634 586.905151,796.645874 
	C555.124756,799.148621 534.181152,828.676758 541.853516,859.632568 
	C550.461975,894.364685 593.722412,908.740906 621.243164,885.938416 
	C622.375549,885.000122 622.659546,883.037781 623.014832,881.052063 
M197.882874,805.469116 
	C196.962296,803.149170 196.032364,800.832825 195.122726,798.508606 
	C191.181061,788.437073 187.253998,778.359741 183.302231,768.292175 
	C182.096619,765.220764 179.806244,763.617493 176.617004,764.730530 
	C172.762314,766.075745 174.974380,768.751953 175.816559,770.904114 
	C194.248734,818.008606 212.705704,865.103394 231.171219,912.194824 
	C233.054016,916.996399 235.012207,921.768433 236.951950,926.547485 
	C238.215118,929.659668 240.925491,930.442749 243.450821,929.159668 
	C244.429337,928.662476 244.731750,925.426392 244.252380,923.749573 
	C243.114471,919.769226 241.323029,915.976074 239.799744,912.105652 
	C225.905930,876.803223 212.012924,841.500610 197.882874,805.469116 
M202.660736,791.951416 
	C216.500366,827.266052 230.337479,862.581604 244.181305,897.894592 
	C247.763504,907.032227 251.430435,916.137268 254.927856,925.307129 
	C256.291199,928.881775 258.792297,930.662964 262.261200,929.337463 
	C266.043060,927.892273 262.978882,925.158325 262.673889,922.982056 
	C262.606140,922.498718 262.354004,922.039001 262.171356,921.574402 
	C246.530319,881.784912 230.891479,841.994507 215.242889,802.208008 
	C210.798248,790.907471 206.253357,779.645691 201.906448,768.307861 
	C200.536240,764.733948 197.930695,763.647522 194.884064,764.956787 
	C194.049881,765.315247 193.915833,768.964172 194.528137,770.733704 
	C196.919937,777.645569 199.739746,784.409302 202.660736,791.951416 
z"/>
<path fill="#295427" opacity="1.000000" stroke="none" 
	d="
M418.531342,1.000003 
	C423.672485,2.344409 428.271698,4.077655 433.028625,4.973809 
	C488.014526,15.332526 537.792480,37.489254 582.366577,71.187210 
	C627.801636,105.536125 663.144958,148.349106 688.350098,199.463089 
	C700.696838,224.501480 709.756165,250.672379 716.098694,277.885132 
	C723.878967,311.266296 726.210632,345.081940 724.459351,379.133514 
	C723.305359,401.571777 720.138062,423.861603 713.908142,445.577484 
	C713.776978,446.034698 713.505371,446.451599 712.932922,446.986847 
	C718.852051,338.652863 685.783081,244.622574 607.454834,168.958221 
	C529.003357,93.174866 433.996216,61.459137 325.728760,73.615059 
	C233.149078,84.009605 156.655762,126.531837 97.622650,198.547455 
	C38.562389,270.596191 13.957340,354.075104 19.246012,447.109283 
	C17.994785,442.628998 16.481052,438.203491 15.532565,433.660004 
	C4.972321,383.073517 4.441785,332.333435 15.567942,281.886444 
	C34.283272,197.029541 78.255463,127.729286 146.584824,74.014374 
	C176.149567,50.773006 208.625488,32.405724 244.195328,20.317160 
	C264.443024,13.435891 285.593933,9.215872 306.324646,3.746370 
	C308.188110,3.254719 309.952362,2.387074 311.881348,1.347022 
	C347.354218,1.000000 382.708466,1.000000 418.531342,1.000003 
z"/>
<path fill="#2A5527" opacity="1.000000" stroke="none" 
	d="
M669.000000,746.985718 
	C629.503418,746.984924 590.506470,746.897644 551.510803,747.081970 
	C546.015381,747.107971 542.830261,745.301758 539.989563,740.473389 
	C482.978241,643.568542 425.787262,546.769470 368.616089,449.958710 
	C367.795258,448.568726 366.765991,447.301788 365.317596,445.243652 
	C363.870087,447.434296 362.735992,448.970398 361.786804,450.613373 
	C337.957092,491.859619 314.143341,533.115173 290.336731,574.374756 
	C286.872833,580.378113 285.725159,580.880798 279.095093,579.494751 
	C237.362335,570.770203 195.234375,568.583862 152.853256,572.743286 
	C136.980423,574.301147 121.245705,577.259033 105.440758,579.527954 
	C104.039879,579.729126 102.585083,579.554688 100.053413,579.554688 
	C101.443367,576.623047 102.316719,574.393005 103.500092,572.341858 
	C132.382004,522.279175 161.300568,472.237671 190.205109,422.188049 
	C247.348160,323.242035 304.482788,224.291168 361.636749,125.351463 
	C365.105865,119.345993 365.687714,119.374313 369.200653,125.394707 
	C433.081451,234.872528 496.951294,344.356689 560.835144,453.832733 
	C616.153687,548.630615 671.495117,643.415222 726.763916,738.242126 
	C728.105835,740.544556 728.710388,743.276672 729.658875,745.808411 
	C726.938538,746.200806 724.220154,746.916748 721.497559,746.933044 
	C704.165527,747.036560 686.832642,746.985779 669.000000,746.985718 
z"/>
<path fill="#295426" opacity="1.000000" stroke="none" 
	d="
M139.340027,596.457886 
	C157.877274,595.295166 175.977264,593.281006 194.076691,593.286133 
	C283.088226,593.311462 363.284515,620.549438 434.980988,673.028931 
	C461.587402,692.503906 485.190216,715.244751 506.250244,740.607483 
	C507.414520,742.009583 507.911011,743.966187 508.718323,745.664734 
	C506.860443,746.106812 505.003601,746.929138 503.144562,746.934082 
	C472.652435,747.015198 442.159424,746.893005 411.668335,747.090027 
	C406.392365,747.124146 402.616669,745.451599 398.963043,741.696777 
	C360.844330,702.523010 316.546692,672.292419 266.255676,650.914062 
	C238.431122,639.086121 209.608093,630.607544 179.793015,625.355591 
	C151.804855,620.425537 123.642303,617.709351 95.277618,619.132812 
	C77.184998,620.040649 59.172882,622.552612 41.124702,624.345703 
	C40.174885,624.440002 39.225426,624.538025 38.126335,623.992798 
	C70.382011,609.933105 104.018829,600.977051 139.340027,596.457886 
z"/>
<path fill="#295326" opacity="1.000000" stroke="none" 
	d="
M226.782837,731.130188 
	C168.222534,693.422607 104.329155,681.380188 36.052189,688.486633 
	C84.805908,671.811401 134.527908,669.395203 184.737549,679.735352 
	C234.824463,690.050232 278.871216,712.252686 315.011353,748.782654 
	C314.882935,749.323547 314.754517,749.864441 314.626099,750.405334 
	C312.933990,750.623169 311.242371,751.025940 309.549713,751.030334 
	C292.396271,751.075134 275.240021,751.207581 258.091553,750.910889 
	C255.032852,750.858032 251.590759,749.550903 249.043030,747.786865 
	C241.528152,742.583557 234.373230,736.860291 226.782837,731.130188 
z"/>
<path fill="#264E24" opacity="1.000000" stroke="none" 
	d="
M90.687492,926.253296 
	C111.054581,874.155334 131.349640,822.406433 151.661926,770.664246 
	C152.867462,767.593323 153.727646,764.369385 158.227829,764.335205 
	C162.780975,764.300598 164.023560,767.178040 165.372391,770.623779 
	C183.145966,816.027954 200.985107,861.406555 218.828247,906.783508 
	C221.081268,912.513245 223.619995,918.137756 225.656296,923.940857 
	C226.221542,925.551880 225.456223,927.629700 225.301361,929.493347 
	C223.012726,928.605530 219.641571,928.363892 218.649490,926.702087 
	C216.206345,922.609619 214.676376,917.925842 213.120987,913.363342 
	C211.751755,909.346924 209.436462,907.617920 205.042587,907.660767 
	C186.552338,907.841309 168.058823,907.811096 149.567719,907.683228 
	C145.497482,907.655090 143.031708,909.031921 141.711319,912.993469 
	C140.292862,917.249329 138.497650,921.388123 136.691940,925.501282 
	C136.119659,926.804810 135.210968,928.438843 134.054031,928.889832 
	C132.514679,929.489746 130.454803,929.442749 128.892090,928.894287 
	C128.393341,928.719238 128.298279,925.882141 128.808594,924.570496 
	C136.532379,904.717529 144.448715,884.939514 152.193344,865.094543 
	C158.424713,849.127258 164.342056,833.036194 170.695038,817.118225 
	C173.142120,810.986877 171.895859,805.915283 167.702393,800.163452 
	C166.600235,802.235535 165.632202,803.689209 165.010315,805.278259 
	C149.666687,844.487610 134.360764,883.711792 119.041954,922.930847 
	C118.497200,924.325500 118.265396,926.332886 117.231827,926.942322 
	C115.183517,928.150085 112.676491,928.580017 110.359024,929.331360 
	C110.227341,927.549133 109.498314,925.546204 110.061874,924.020874 
	C113.463715,914.813293 117.161575,905.715027 120.760078,896.580078 
	C134.362839,862.049072 147.876862,827.482605 161.651062,793.020020 
	C164.085693,786.928711 162.110611,782.193665 158.694244,776.351440 
	C157.473969,778.702087 156.452774,780.302063 155.771225,782.035645 
	C137.199707,829.274414 118.665367,876.527832 100.108063,923.772217 
	C99.564476,925.156128 99.052971,926.634766 98.159004,927.783142 
	C95.799164,930.814636 92.557182,930.246643 90.687492,926.253296 
M162.294815,860.646973 
	C160.732025,864.125122 162.470947,865.223083 165.636017,865.234436 
	C173.131577,865.261414 180.627930,865.333496 188.122574,865.254578 
	C193.298248,865.200073 193.744049,864.564575 191.914139,859.674255 
	C187.773178,848.607788 183.532761,837.578308 179.268311,826.558716 
	C178.846252,825.468140 177.979431,824.549622 176.718597,822.643555 
	C171.739532,835.746216 167.143112,847.841919 162.294815,860.646973 
M151.028839,891.170532 
	C150.082321,893.699219 149.135803,896.227966 148.189270,898.756653 
	C150.549973,899.176575 152.908188,899.943237 155.271759,899.960144 
	C170.396683,900.067810 185.523453,900.076904 200.647629,899.924805 
	C202.558685,899.905640 204.458328,898.755066 206.363281,898.128723 
	C205.480164,895.855164 205.018875,893.239685 203.556671,891.435425 
	C202.671173,890.342834 200.240936,890.191956 198.494980,890.160583 
	C191.017563,890.026062 183.535385,890.008545 176.057114,890.109619 
	C167.935272,890.219299 159.815842,890.507690 151.028839,891.170532 
M183.481750,872.914307 
	C176.832596,872.919128 170.182861,872.870544 163.534470,872.944092 
	C157.108582,873.015137 155.742554,874.431885 155.196747,881.403625 
	C155.735474,881.628174 156.325409,882.086426 156.917938,882.089722 
	C170.045715,882.163940 183.173798,882.209351 196.301819,882.205688 
	C199.397491,882.204834 199.809296,880.451843 198.977890,877.854736 
	C198.018494,874.857910 196.351746,872.924255 192.949585,872.968201 
	C190.124725,873.004700 187.298538,872.936035 183.481750,872.914307 
z"/>
<path fill="#264E24" opacity="1.000000" stroke="none" 
	d="
M446.281464,833.338501 
	C441.524994,845.426392 433.905518,854.676208 422.886871,860.815613 
	C418.992340,862.985535 419.286072,865.054443 421.150024,868.382935 
	C431.155853,886.250122 441.066559,904.171814 450.808746,922.183655 
	C451.877869,924.160278 452.606964,928.485413 451.879578,928.901855 
	C448.363251,930.915039 445.762482,928.925049 443.899719,925.557007 
	C434.068604,907.781555 424.147430,890.055908 414.286255,872.297058 
	C410.377991,865.258728 410.314087,865.203796 401.490295,868.033691 
	C402.296783,869.816040 402.963013,871.599121 403.871704,873.248596 
	C412.950195,889.727844 422.133514,906.149902 431.083923,922.698120 
	C432.069824,924.520996 432.627197,928.589661 431.947998,928.956055 
	C428.734467,930.689636 426.006531,929.309387 424.184814,926.006226 
	C414.374878,908.218384 404.519135,890.455688 394.643768,872.704041 
	C391.252167,866.607361 388.764221,865.767212 381.730316,868.838623 
	C392.591644,888.604736 403.419220,908.309326 414.253174,928.025574 
	C408.553528,930.881531 406.420746,930.166321 403.387482,924.675232 
	C394.129181,907.914856 384.884766,891.146423 375.727386,874.330872 
	C373.619537,870.460205 371.914703,866.524536 366.357544,866.803833 
	C365.462585,866.848755 363.602875,864.553101 363.708954,863.491394 
	C363.848602,862.093567 365.248566,860.430603 366.562897,859.659607 
	C367.705261,858.989624 369.482056,859.349670 370.978760,859.344116 
	C380.474945,859.309082 389.972260,859.381409 399.467255,859.263367 
	C419.935303,859.008911 437.417511,843.391296 440.628265,822.600647 
	C443.885742,801.507568 431.981689,781.195068 412.351379,774.778625 
	C408.610626,773.555847 404.560547,772.722717 400.643982,772.685730 
	C377.155334,772.463867 353.663910,772.488403 330.173553,772.522156 
	C324.319580,772.530579 323.833008,773.182373 323.829987,779.933289 
	C323.809021,826.748474 323.818085,873.563721 323.808014,920.378906 
	C323.807587,922.376221 324.174805,924.545471 323.514404,926.315002 
	C323.011261,927.663025 321.138794,929.348206 319.894653,929.332947 
	C318.650116,929.317566 317.030457,927.584229 316.318176,926.216980 
	C315.694153,925.019104 316.058411,923.284302 316.058167,921.786682 
	C316.050537,871.972656 316.047424,822.158569 316.055847,772.344543 
	C316.057159,764.658936 316.333710,764.355896 323.858093,764.348877 
	C347.682190,764.326721 371.506744,764.254333 395.330292,764.367493 
	C424.598297,764.506470 444.763885,781.412109 448.858917,810.408936 
	C449.884155,817.668457 447.318604,825.435059 446.281464,833.338501 
z"/>
<path fill="#264E24" opacity="1.000000" stroke="none" 
	d="
M517.434692,803.364868 
	C536.845154,772.528259 570.157898,757.317139 605.507507,763.491089 
	C620.701782,766.144897 634.331665,772.678223 645.869873,783.149170 
	C647.629395,784.746033 650.289062,786.124451 647.537720,789.169678 
	C645.079407,791.890442 643.164551,791.016602 640.809875,788.960388 
	C622.537659,773.004456 600.845032,767.181152 577.505188,771.308533 
	C546.944031,776.712952 525.727356,794.938660 516.848267,824.898254 
	C504.034576,868.134033 529.244080,911.173523 572.917358,921.619263 
	C597.251343,927.439453 619.447998,921.710144 639.152771,906.320801 
	C640.330322,905.401245 641.627625,903.741943 642.741638,903.842285 
	C644.435730,903.994873 646.553589,905.032471 647.449341,906.384521 
	C647.997009,907.211243 647.060303,909.873413 645.996399,910.784668 
	C634.786377,920.387024 621.984985,927.024536 607.450806,929.805481 
	C563.701843,938.176331 523.548584,914.803650 509.607269,872.522034 
	C501.714661,848.585083 504.737457,825.522156 517.434692,803.364868 
z"/>
<path fill="#254D23" opacity="1.000000" stroke="none" 
	d="
M414.827942,786.165527 
	C427.275085,794.223389 433.327911,805.384338 431.625885,819.792297 
	C429.869873,834.657532 421.046814,844.178406 406.885162,848.769409 
	C405.320465,849.276611 403.635803,849.656616 402.002899,849.671509 
	C390.837616,849.773499 379.667572,849.911072 368.509338,849.629395 
	C366.807587,849.586487 364.050476,847.687317 363.712372,846.205994 
	C362.965118,842.932007 365.717621,842.187683 368.501190,842.183716 
	C378.334167,842.169678 388.169556,842.275879 397.999512,842.092896 
	C411.490723,841.841858 422.007355,832.405884 424.042328,818.998230 
	C425.815277,807.316956 418.185974,794.974854 406.236725,790.948242 
	C402.849579,789.806885 399.036835,789.584290 395.413269,789.548462 
	C380.081757,789.396973 364.747894,789.443237 349.415070,789.482605 
	C342.110657,789.501343 341.458252,790.155334 341.453369,797.541809 
	C341.426422,838.374207 341.439575,879.206604 341.429108,920.039001 
	C341.428589,922.037292 341.827789,924.231384 341.134857,925.973999 
	C340.546234,927.454346 338.628784,929.365051 337.334381,929.339050 
	C336.014923,929.312561 334.432709,927.338440 333.549133,925.866699 
	C332.950195,924.869019 333.322693,923.266357 333.322510,921.934265 
	C333.315765,877.768616 333.309845,833.602966 333.322571,789.437317 
	C333.324738,781.932190 333.696045,781.558044 341.266937,781.546814 
	C358.766479,781.520935 376.266144,781.525574 393.765686,781.552246 
	C400.984589,781.563232 408.098389,782.151550 414.827942,786.165527 
z"/>
<path fill="#264E24" opacity="1.000000" stroke="none" 
	d="
M548.353271,899.608521 
	C527.012939,881.231873 518.535950,858.211670 524.842468,831.295105 
	C531.169373,804.291748 549.169800,787.242798 576.211792,781.046997 
	C596.872192,776.313232 615.872681,781.403931 632.550964,794.532776 
	C634.459473,796.035034 638.175659,797.367615 635.330811,801.154724 
	C632.543518,804.865051 630.265625,802.486389 627.835022,800.648071 
	C606.822021,784.755127 582.128540,782.836548 560.446167,795.380554 
	C531.248901,812.272217 521.906616,850.818115 540.222351,878.822449 
	C559.309204,908.005493 597.259216,915.330444 625.093140,895.195862 
	C626.441895,894.220154 627.762878,893.201233 629.046997,892.142029 
	C631.482605,890.133057 633.726990,891.004517 634.849548,893.296204 
	C635.439941,894.501526 634.921143,897.255371 633.902588,898.092346 
	C619.224976,910.153625 602.404358,915.867310 583.366333,913.893250 
	C570.503540,912.559448 558.853577,907.867920 548.353271,899.608521 
z"/>
<path fill="#264E24" opacity="1.000000" stroke="none" 
	d="
M350.384705,807.207520 
	C350.611267,798.905273 350.979828,798.493469 358.641907,798.473511 
	C370.631805,798.442200 382.621979,798.446960 394.611816,798.492310 
	C400.271545,798.513733 405.549835,799.733582 409.616852,804.060242 
	C414.026825,808.751953 416.117035,814.135559 413.905884,820.513733 
	C411.593994,827.182373 407.145477,831.922913 399.891357,832.290833 
	C389.261688,832.830017 378.589752,832.779968 367.946350,832.530579 
	C366.422546,832.494934 364.957825,829.938538 363.465759,828.548706 
	C365.019928,827.225403 366.529907,824.820923 368.135437,824.755310 
	C378.111847,824.347534 388.109741,824.462402 398.100494,824.408081 
	C402.367493,824.384827 405.452698,821.963989 406.125946,818.214172 
	C406.606384,815.538086 405.460144,812.088928 403.924591,809.702209 
	C402.911438,808.127502 399.936218,807.122986 397.810364,807.071655 
	C386.328369,806.794861 374.837280,806.889893 363.349304,806.868774 
	C359.188110,806.861084 358.595764,809.605347 358.602020,812.938171 
	C358.628235,826.926453 358.598114,840.914795 358.595795,854.903137 
	C358.592194,876.718323 358.596405,898.533508 358.590302,920.348694 
	C358.589813,922.013306 359.019287,923.903198 358.378479,925.284607 
	C357.608063,926.945618 355.904907,928.173950 354.605591,929.589600 
	C353.239838,928.251465 351.388855,927.134583 350.648895,925.511230 
	C349.950470,923.979004 350.382782,921.914124 350.382507,920.083496 
	C350.376648,882.614685 350.380127,845.145813 350.384705,807.207520 
z"/>
<path fill="#264E24" opacity="1.000000" stroke="none" 
	d="
M623.176819,881.302307 
	C622.659546,883.037781 622.375549,885.000122 621.243164,885.938416 
	C593.722412,908.740906 550.461975,894.364685 541.853516,859.632568 
	C534.181152,828.676758 555.124756,799.148621 586.905151,796.645874 
	C599.872986,795.624634 611.544556,799.900635 621.633240,808.058533 
	C622.800903,809.002686 623.624146,811.888916 623.044800,813.166138 
	C621.787659,815.937622 619.407104,815.882629 616.874817,813.996155 
	C603.874512,804.310608 589.729431,801.954834 574.466064,807.835144 
	C557.954834,814.196228 546.940369,831.447144 547.929504,849.221863 
	C548.926880,867.144653 562.083435,882.832153 579.435547,887.566101 
	C592.682068,891.180054 604.448669,888.256592 615.412415,880.749390 
	C618.199158,878.841309 620.606873,877.589294 623.176819,881.302307 
z"/>
<path fill="#264E24" opacity="1.000000" stroke="none" 
	d="
M198.001282,805.833557 
	C212.012924,841.500610 225.905930,876.803223 239.799744,912.105652 
	C241.323029,915.976074 243.114471,919.769226 244.252380,923.749573 
	C244.731750,925.426392 244.429337,928.662476 243.450821,929.159668 
	C240.925491,930.442749 238.215118,929.659668 236.951950,926.547485 
	C235.012207,921.768433 233.054016,916.996399 231.171219,912.194824 
	C212.705704,865.103394 194.248734,818.008606 175.816559,770.904114 
	C174.974380,768.751953 172.762314,766.075745 176.617004,764.730530 
	C179.806244,763.617493 182.096619,765.220764 183.302231,768.292175 
	C187.253998,778.359741 191.181061,788.437073 195.122726,798.508606 
	C196.032364,800.832825 196.962296,803.149170 198.001282,805.833557 
z"/>
<path fill="#264E24" opacity="1.000000" stroke="none" 
	d="
M202.530579,791.589783 
	C199.739746,784.409302 196.919937,777.645569 194.528137,770.733704 
	C193.915833,768.964172 194.049881,765.315247 194.884064,764.956787 
	C197.930695,763.647522 200.536240,764.733948 201.906448,768.307861 
	C206.253357,779.645691 210.798248,790.907471 215.242889,802.208008 
	C230.891479,841.994507 246.530319,881.784912 262.171356,921.574402 
	C262.354004,922.039001 262.606140,922.498718 262.673889,922.982056 
	C262.978882,925.158325 266.043060,927.892273 262.261200,929.337463 
	C258.792297,930.662964 256.291199,928.881775 254.927856,925.307129 
	C251.430435,916.137268 247.763504,907.032227 244.181305,897.894592 
	C230.337479,862.581604 216.500366,827.266052 202.530579,791.589783 
z"/>
<path fill="#020502" opacity="1.000000" stroke="none" 
	d="
M162.420746,860.292297 
	C167.143112,847.841919 171.739532,835.746216 176.718597,822.643555 
	C177.979431,824.549622 178.846252,825.468140 179.268311,826.558716 
	C183.532761,837.578308 187.773178,848.607788 191.914139,859.674255 
	C193.744049,864.564575 193.298248,865.200073 188.122574,865.254578 
	C180.627930,865.333496 173.131577,865.261414 165.636017,865.234436 
	C162.470947,865.223083 160.732025,864.125122 162.420746,860.292297 
z"/>
<path fill="#030703" opacity="1.000000" stroke="none" 
	d="
M151.362091,890.944336 
	C159.815842,890.507690 167.935272,890.219299 176.057114,890.109619 
	C183.535385,890.008545 191.017563,890.026062 198.494980,890.160583 
	C200.240936,890.191956 202.671173,890.342834 203.556671,891.435425 
	C205.018875,893.239685 205.480164,895.855164 206.363266,898.128723 
	C204.458328,898.755066 202.558685,899.905640 200.647629,899.924805 
	C185.523453,900.076904 170.396683,900.067810 155.271759,899.960144 
	C152.908188,899.943237 150.549973,899.176575 148.189285,898.756653 
	C149.135803,896.227966 150.082321,893.699219 151.362091,890.944336 
z"/>
<path fill="#010301" opacity="1.000000" stroke="none" 
	d="
M183.977341,872.914124 
	C187.298538,872.936035 190.124725,873.004700 192.949585,872.968201 
	C196.351746,872.924255 198.018494,874.857910 198.977890,877.854736 
	C199.809296,880.451843 199.397491,882.204834 196.301819,882.205688 
	C183.173798,882.209351 170.045715,882.163940 156.917938,882.089722 
	C156.325409,882.086426 155.735474,881.628174 155.196747,881.403625 
	C155.742554,874.431885 157.108582,873.015137 163.534470,872.944092 
	C170.182861,872.870544 176.832596,872.919128 183.977341,872.914124 
z"/>
</svg>