<svg version="1.1" id="Layer_1" xmlns="http://www.w3.org/2000/svg" xmlns:xlink="http://www.w3.org/1999/xlink" x="0px" y="0px"
	 width="100%" viewBox="0 0 742 756" enable-background="new 0 0 742 756" xml:space="preserve">
<path fill="#000000" opacity="1.000000" stroke="none" 
	d="
M420.000000,0.999999 
	C527.650879,1.000000 635.301819,1.000000 742.952698,1.000001 
	C742.968445,1.150871 742.998047,1.301739 742.998047,1.452607 
	C743.000000,253.249039 743.000000,505.045471 743.000000,756.920959 
	C495.755615,756.920959 248.511200,756.920959 1.133396,756.920959 
	C1.133396,505.000031 1.133396,253.000031 1.127885,1.000012 
	C104.440742,1.000000 207.759109,1.000000 311.411865,1.347596 
	C306.159149,3.032763 300.592896,4.465757 294.981506,5.692170 
	C262.632507,12.762319 231.502228,23.223993 202.062103,38.550781 
	C147.149017,67.139015 102.260033,106.987854 67.869263,158.446320 
	C35.263523,207.233887 15.642866,260.841187 9.685583,319.315002 
	C5.757692,357.869263 7.432065,396.155151 15.618604,434.085114 
	C16.570618,438.495972 17.969069,442.810425 19.160549,447.169586 
	C13.894041,349.703094 40.836590,263.123260 105.283005,189.619278 
	C169.760071,116.080330 251.915268,76.667076 349.342682,71.466095 
	C430.976135,67.108223 506.111206,89.036819 571.499573,138.419189 
	C673.616028,215.539246 718.750061,319.758850 713.158142,446.958008 
	C714.144043,444.750702 715.219055,442.508942 715.603027,440.154480 
	C718.226501,424.069702 721.323303,408.029541 723.109436,391.847168 
	C727.762573,349.689545 724.208984,308.001709 713.526367,267.024872 
	C700.181152,215.834991 676.755615,169.610641 642.730713,129.050064 
	C585.476685,60.798393 512.967651,18.751377 425.038879,3.542083 
	C423.265747,3.235376 421.675537,1.870958 420.000000,0.999999 
M278.271301,579.294983 
	C283.413544,580.791687 287.180573,580.187134 290.282043,574.746826 
	C313.705688,533.659241 337.427979,492.741913 361.087738,451.789185 
	C362.217041,449.834503 363.635773,448.047119 365.357910,445.545319 
	C366.832794,447.595551 367.984924,448.959808 368.880402,450.475739 
	C425.972351,547.124817 483.080475,643.764465 540.007141,740.510803 
	C542.857117,745.354309 546.072998,747.095520 551.547791,747.080750 
	C608.702271,746.926880 665.857361,746.987244 723.012268,746.980835 
	C724.510498,746.980652 726.302063,747.385010 727.423218,746.711975 
	C728.509094,746.059998 729.385864,744.285156 729.456726,742.955750 
	C729.516357,741.836060 728.298584,740.641052 727.626892,739.490662 
	C679.091492,656.367065 630.539673,573.253113 582.020447,490.120087 
	C511.085999,368.580841 440.175690,247.027573 369.251404,125.482407 
	C365.703522,119.402275 365.098602,119.359787 361.688782,125.257141 
	C330.428925,179.321976 299.183044,233.394897 267.950928,287.475769 
	C213.146912,382.373169 158.352905,477.276337 103.576202,572.189453 
	C102.381348,574.259888 101.445633,576.479919 100.389046,578.630127 
	C100.612762,579.149902 100.836479,579.669617 101.060204,580.189331 
	C159.863449,568.166199 218.658020,567.435852 278.271301,579.294983 
M72.109512,620.448669 
	C79.922249,619.953613 87.728394,619.260559 95.548943,619.000244 
	C120.086929,618.183533 144.455658,619.984009 168.748917,623.550171 
	C196.197311,627.579468 222.909943,634.379639 248.876297,644.034668 
	C306.290802,665.383118 356.400543,698.049683 399.169952,741.897156 
	C402.699615,745.515869 406.380157,747.111877 411.454407,747.082458 
	C441.612610,746.907837 471.772491,747.031189 501.931335,746.928955 
	C504.242065,746.921143 506.549500,745.945679 508.858429,745.419922 
	C507.733582,743.473206 506.867920,741.308960 505.444641,739.612671 
	C487.076080,717.719971 466.753845,697.832275 444.294342,680.129639 
	C407.848175,651.402649 367.663300,629.512573 323.770416,614.547485 
	C293.572937,604.251770 262.559570,597.695557 230.723465,594.788818 
	C201.900253,592.157288 173.123596,592.283875 144.445099,595.624207 
	C113.776886,599.196289 83.824295,606.272583 54.743397,616.783020 
	C49.057228,618.838074 43.475368,621.181763 37.845402,623.392334 
	C37.971909,623.780090 38.098412,624.167847 38.224918,624.555603 
	C49.215317,623.205383 60.205719,621.855164 72.109512,620.448669 
M146.450851,695.813965 
	C148.538284,696.379822 150.631882,696.924011 152.712265,697.514709 
	C188.076294,707.556213 220.221298,723.732971 248.557877,747.351929 
	C251.006897,749.393250 254.751724,750.829041 257.927307,750.891785 
	C275.241302,751.233582 292.565552,751.071350 309.886169,751.034546 
	C311.438416,751.031250 312.989929,750.684998 314.541779,750.498047 
	C314.704773,749.956543 314.867798,749.415039 315.030823,748.873535 
	C284.513062,717.642517 247.596924,696.827881 205.718674,684.928833 
	C148.619949,668.705139 91.673134,669.769775 33.934475,688.357178 
	C53.686081,687.919922 72.166428,686.235657 90.451408,687.462708 
	C108.947609,688.703857 127.250397,692.827148 146.450851,695.813965 
z"/>
<path fill="#295427" opacity="1.000000" stroke="none" 
	d="
M419.531342,0.999999 
	C421.675537,1.870958 423.265747,3.235376 425.038879,3.542083 
	C512.967651,18.751377 585.476685,60.798393 642.730713,129.050064 
	C676.755615,169.610641 700.181152,215.834991 713.526367,267.024872 
	C724.208984,308.001709 727.762573,349.689545 723.109436,391.847168 
	C721.323303,408.029541 718.226501,424.069702 715.603027,440.154480 
	C715.219055,442.508942 714.144043,444.750702 713.158142,446.958008 
	C718.750061,319.758850 673.616028,215.539246 571.499573,138.419189 
	C506.111206,89.036819 430.976135,67.108223 349.342682,71.466095 
	C251.915268,76.667076 169.760071,116.080330 105.283005,189.619278 
	C40.836590,263.123260 13.894041,349.703094 19.160549,447.169586 
	C17.969069,442.810425 16.570618,438.495972 15.618604,434.085114 
	C7.432065,396.155151 5.757692,357.869263 9.685583,319.315002 
	C15.642866,260.841187 35.263523,207.233887 67.869263,158.446320 
	C102.260033,106.987854 147.149017,67.139015 202.062103,38.550781 
	C231.502228,23.223993 262.632507,12.762319 294.981506,5.692170 
	C300.592896,4.465757 306.159149,3.032763 311.873108,1.347596 
	C347.687561,1.000000 383.375122,1.000000 419.531342,0.999999 
z"/>
<path fill="#2A5527" opacity="1.000000" stroke="none" 
	d="
M277.857178,579.188538 
	C218.658020,567.435852 159.863449,568.166199 101.060204,580.189331 
	C100.836479,579.669617 100.612762,579.149902 100.389046,578.630127 
	C101.445633,576.479919 102.381348,574.259888 103.576202,572.189453 
	C158.352905,477.276337 213.146912,382.373169 267.950928,287.475769 
	C299.183044,233.394897 330.428925,179.321976 361.688782,125.257141 
	C365.098602,119.359787 365.703522,119.402275 369.251404,125.482407 
	C440.175690,247.027573 511.085999,368.580841 582.020447,490.120087 
	C630.539673,573.253113 679.091492,656.367065 727.626892,739.490662 
	C728.298584,740.641052 729.516357,741.836060 729.456726,742.955750 
	C729.385864,744.285156 728.509094,746.059998 727.423218,746.711975 
	C726.302063,747.385010 724.510498,746.980652 723.012268,746.980835 
	C665.857361,746.987244 608.702271,746.926880 551.547791,747.080750 
	C546.072998,747.095520 542.857117,745.354309 540.007141,740.510803 
	C483.080475,643.764465 425.972351,547.124817 368.880402,450.475739 
	C367.984924,448.959808 366.832794,447.595551 365.357910,445.545319 
	C363.635773,448.047119 362.217041,449.834503 361.087738,451.789185 
	C337.427979,492.741913 313.705688,533.659241 290.282043,574.746826 
	C287.180573,580.187134 283.413544,580.791687 277.857178,579.188538 
z"/>
<path fill="#295426" opacity="1.000000" stroke="none" 
	d="
M71.652817,620.476807 
	C60.205719,621.855164 49.215317,623.205383 38.224918,624.555603 
	C38.098412,624.167847 37.971909,623.780090 37.845402,623.392334 
	C43.475368,621.181763 49.057228,618.838074 54.743397,616.783020 
	C83.824295,606.272583 113.776886,599.196289 144.445099,595.624207 
	C173.123596,592.283875 201.900253,592.157288 230.723465,594.788818 
	C262.559570,597.695557 293.572937,604.251770 323.770416,614.547485 
	C367.663300,629.512573 407.848175,651.402649 444.294342,680.129639 
	C466.753845,697.832275 487.076080,717.719971 505.444641,739.612671 
	C506.867920,741.308960 507.733582,743.473206 508.858429,745.419922 
	C506.549500,745.945679 504.242065,746.921143 501.931335,746.928955 
	C471.772491,747.031189 441.612610,746.907837 411.454407,747.082458 
	C406.380157,747.111877 402.699615,745.515869 399.169952,741.897156 
	C356.400543,698.049683 306.290802,665.383118 248.876297,644.034668 
	C222.909943,634.379639 196.197311,627.579468 168.748917,623.550171 
	C144.455658,619.984009 120.086929,618.183533 95.548943,619.000244 
	C87.728394,619.260559 79.922249,619.953613 71.652817,620.476807 
z"/>
<path fill="#295326" opacity="1.000000" stroke="none" 
	d="
M146.044373,695.750977 
	C127.250397,692.827148 108.947609,688.703857 90.451408,687.462708 
	C72.166428,686.235657 53.686081,687.919922 33.934475,688.357178 
	C91.673134,669.769775 148.619949,668.705139 205.718674,684.928833 
	C247.596924,696.827881 284.513062,717.642517 315.030823,748.873535 
	C314.867798,749.415039 314.704773,749.956543 314.541779,750.498047 
	C312.989929,750.684998 311.438416,751.031250 309.886169,751.034546 
	C292.565552,751.071350 275.241302,751.233582 257.927307,750.891785 
	C254.751724,750.829041 251.006897,749.393250 248.557877,747.351929 
	C220.221298,723.732971 188.076294,707.556213 152.712265,697.514709 
	C150.631882,696.924011 148.538284,696.379822 146.044373,695.750977 
z"/>
</svg>